# xmcd
#
# Track frame offsets: 
#        150
#        17153
#        32593
#        48644
#        64894
#        78469
#        96190
#        121500
#        149219
#        169220
#        187015
#        206493
#
# Disc length: 2948 seconds
#
# Revision: 0
# Processed by: cddbd v1.5.2PL0 Copyright (c) Steve Scherf et al.
# Submitted via: ExactAudioCopy v0.95b4
#
DISCID=ac0b820c
DTITLE=Inyectores - Desenchufado
DYEAR=2005
DGENRE=Acoustic
TTITLE0=En Un Rincón
TTITLE1=Salvación
TTITLE2=La Mente Es Un Lugar
TTITLE3=Mi Otro Yo
TTITLE4=Poder Volar
TTITLE5=Camino Al Sol
TTITLE6=Un Futuro
TTITLE7=Soñador
TTITLE8=Rompeolas
TTITLE9=Mundo Nuevo
TTITLE10=Viviré
TTITLE11=Última Parada
EXTD=
EXTT0=
EXTT1=
EXTT2=
EXTT3=
EXTT4=
EXTT5=
EXTT6=
EXTT7=
EXTT8=
EXTT9=
EXTT10=
EXTT11=
PLAYORDER=
